<svg width="464" height="50" viewBox="0 0 464 50" fill="none" xmlns="http://www.w3.org/2000/svg">
<path d="M0 25C0 11.1929 11.1929 0 25 0H439C452.807 0 464 11.1929 464 25C464 38.8071 452.807 50 439 50H25C11.1929 50 0 38.8071 0 25Z" fill="url(#paint0_linear_370_1240)"/>
<path d="M177.596 32L183.256 17.8H185.856L191.536 32H189.016L187.676 28.48H181.356L180.016 32H177.596ZM182.156 26.4H186.876L184.516 20.26L182.156 26.4ZM197.271 32.3C196.577 32.3 195.931 32.16 195.331 31.88C194.744 31.6 194.231 31.2133 193.791 30.72C193.351 30.2267 193.004 29.6467 192.751 28.98C192.511 28.3133 192.391 27.5933 192.391 26.82C192.391 26.0333 192.517 25.3 192.771 24.62C193.024 23.94 193.377 23.3467 193.831 22.84C194.284 22.3333 194.811 21.94 195.411 21.66C196.024 21.38 196.684 21.24 197.391 21.24C198.084 21.24 198.717 21.3867 199.291 21.68C199.864 21.9733 200.337 22.3867 200.711 22.92V17.12H203.011V32H200.911L200.811 30.32C200.437 30.9333 199.944 31.42 199.331 31.78C198.717 32.1267 198.031 32.3 197.271 32.3ZM197.751 30.22C198.324 30.22 198.837 30.0733 199.291 29.78C199.744 29.4733 200.097 29.06 200.351 28.54C200.617 28.02 200.751 27.4333 200.751 26.78C200.751 26.1133 200.617 25.52 200.351 25C200.097 24.48 199.744 24.0733 199.291 23.78C198.837 23.4733 198.324 23.32 197.751 23.32C197.177 23.32 196.664 23.4733 196.211 23.78C195.757 24.0733 195.397 24.48 195.131 25C194.877 25.52 194.751 26.1133 194.751 26.78C194.751 27.4333 194.877 28.02 195.131 28.54C195.397 29.06 195.757 29.4733 196.211 29.78C196.664 30.0733 197.177 30.22 197.751 30.22ZM209.907 32.3C209.214 32.3 208.567 32.16 207.967 31.88C207.381 31.6 206.867 31.2133 206.427 30.72C205.987 30.2267 205.641 29.6467 205.387 28.98C205.147 28.3133 205.027 27.5933 205.027 26.82C205.027 26.0333 205.154 25.3 205.407 24.62C205.661 23.94 206.014 23.3467 206.467 22.84C206.921 22.3333 207.447 21.94 208.047 21.66C208.661 21.38 209.321 21.24 210.027 21.24C210.721 21.24 211.354 21.3867 211.927 21.68C212.501 21.9733 212.974 22.3867 213.347 22.92V17.12H215.647V32H213.547L213.447 30.32C213.074 30.9333 212.581 31.42 211.967 31.78C211.354 32.1267 210.667 32.3 209.907 32.3ZM210.387 30.22C210.961 30.22 211.474 30.0733 211.927 29.78C212.381 29.4733 212.734 29.06 212.987 28.54C213.254 28.02 213.387 27.4333 213.387 26.78C213.387 26.1133 213.254 25.52 212.987 25C212.734 24.48 212.381 24.0733 211.927 23.78C211.474 23.4733 210.961 23.32 210.387 23.32C209.814 23.32 209.301 23.4733 208.847 23.78C208.394 24.0733 208.034 24.48 207.767 25C207.514 25.52 207.387 26.1133 207.387 26.78C207.387 27.4333 207.514 28.02 207.767 28.54C208.034 29.06 208.394 29.4733 208.847 29.78C209.301 30.0733 209.814 30.22 210.387 30.22ZM222.542 32V17.8H226.842C227.975 17.8 228.942 17.9867 229.742 18.36C230.555 18.7333 231.175 19.2667 231.602 19.96C232.042 20.6533 232.262 21.4933 232.262 22.48C232.262 23.4133 232.035 24.2333 231.582 24.94C231.129 25.6333 230.489 26.1733 229.662 26.56C228.835 26.9333 227.862 27.12 226.742 27.12C226.475 27.12 226.189 27.1067 225.882 27.08C225.589 27.0533 225.275 27.02 224.942 26.98V32H222.542ZM224.942 19.92V24.86C225.235 24.9 225.529 24.9333 225.822 24.96C226.115 24.9867 226.389 25 226.642 25C227.655 25 228.429 24.78 228.962 24.34C229.509 23.9 229.782 23.2733 229.782 22.46C229.782 21.66 229.522 21.04 229.002 20.6C228.482 20.1467 227.749 19.92 226.802 19.92H224.942ZM234.12 32V21.54H236.22L236.32 23.26C236.587 22.6733 236.953 22.22 237.42 21.9C237.9 21.5667 238.46 21.4 239.1 21.4C239.3 21.4 239.493 21.4133 239.68 21.44C239.867 21.4667 240.033 21.5133 240.18 21.58L239.92 23.82C239.773 23.7667 239.62 23.7333 239.46 23.72C239.3 23.6933 239.14 23.68 238.98 23.68C238.18 23.68 237.553 23.9467 237.1 24.48C236.647 25.0133 236.42 25.7533 236.42 26.7V32H234.12ZM246.422 32.3C245.662 32.3 244.955 32.1667 244.302 31.9C243.662 31.62 243.102 31.2333 242.622 30.74C242.142 30.2333 241.768 29.6467 241.502 28.98C241.235 28.3 241.102 27.56 241.102 26.76C241.102 25.9733 241.235 25.2467 241.502 24.58C241.768 23.9 242.142 23.3133 242.622 22.82C243.115 22.3133 243.688 21.9267 244.342 21.66C245.008 21.38 245.728 21.24 246.502 21.24C247.262 21.24 247.962 21.38 248.602 21.66C249.255 21.9267 249.822 22.3133 250.302 22.82C250.782 23.3133 251.155 23.8933 251.422 24.56C251.688 25.2267 251.822 25.96 251.822 26.76C251.822 27.56 251.688 28.3 251.422 28.98C251.155 29.6467 250.775 30.2333 250.282 30.74C249.802 31.2333 249.228 31.62 248.562 31.9C247.908 32.1667 247.195 32.3 246.422 32.3ZM246.462 30.22C247.035 30.22 247.548 30.0733 248.002 29.78C248.455 29.4733 248.808 29.06 249.062 28.54C249.328 28.02 249.462 27.4267 249.462 26.76C249.462 26.0933 249.328 25.5067 249.062 25C248.808 24.48 248.455 24.0733 248.002 23.78C247.548 23.4733 247.035 23.32 246.462 23.32C245.888 23.32 245.375 23.4733 244.922 23.78C244.468 24.0733 244.108 24.48 243.842 25C243.588 25.5067 243.462 26.0933 243.462 26.76C243.462 27.4267 243.588 28.02 243.842 28.54C244.108 29.06 244.468 29.4733 244.922 29.78C245.375 30.0733 245.888 30.22 246.462 30.22ZM256.487 18.62C256.487 18.8733 256.42 19.1067 256.287 19.32C256.167 19.5333 256 19.7067 255.787 19.84C255.587 19.96 255.353 20.02 255.087 20.02C254.82 20.02 254.58 19.96 254.367 19.84C254.167 19.7067 254 19.5333 253.867 19.32C253.747 19.1067 253.687 18.8733 253.687 18.62C253.687 18.3667 253.747 18.1333 253.867 17.92C254 17.7067 254.167 17.54 254.367 17.42C254.58 17.2867 254.82 17.22 255.087 17.22C255.353 17.22 255.587 17.2867 255.787 17.42C256 17.54 256.167 17.7067 256.287 17.92C256.42 18.1333 256.487 18.3667 256.487 18.62ZM252.967 36.16C252.62 36.16 252.293 36.1133 251.987 36.02C251.68 35.94 251.393 35.82 251.127 35.66L251.667 33.88C251.973 34.0533 252.293 34.14 252.627 34.14C253.04 34.14 253.36 34 253.587 33.72C253.827 33.44 253.947 33.0467 253.947 32.54V21.54H256.247V32.68C256.247 33.3733 256.107 33.98 255.827 34.5C255.56 35.02 255.18 35.4267 254.687 35.72C254.193 36.0133 253.62 36.16 252.967 36.16ZM263.59 32.3C262.816 32.3 262.103 32.1667 261.45 31.9C260.81 31.62 260.25 31.2333 259.77 30.74C259.29 30.2467 258.916 29.6667 258.65 29C258.396 28.32 258.27 27.5733 258.27 26.76C258.27 25.9733 258.396 25.2467 258.65 24.58C258.916 23.9133 259.276 23.3333 259.73 22.84C260.196 22.3333 260.743 21.94 261.37 21.66C261.996 21.38 262.676 21.24 263.41 21.24C264.143 21.24 264.81 21.3733 265.41 21.64C266.023 21.8933 266.55 22.26 266.99 22.74C267.443 23.22 267.79 23.7933 268.03 24.46C268.27 25.1133 268.39 25.84 268.39 26.64V27.32H260.65C260.716 27.9333 260.876 28.4667 261.13 28.92C261.396 29.36 261.736 29.7 262.15 29.94C262.563 30.18 263.043 30.3 263.59 30.3C264.683 30.3 265.536 29.8133 266.15 28.84L268.17 29.62C267.93 30.1667 267.576 30.6467 267.11 31.06C266.656 31.46 266.123 31.7667 265.51 31.98C264.91 32.1933 264.27 32.3 263.59 32.3ZM263.41 23.1C262.943 23.1 262.523 23.2067 262.15 23.42C261.79 23.6333 261.483 23.9333 261.23 24.32C260.976 24.7067 260.803 25.16 260.71 25.68H265.99C265.91 25.16 265.756 24.7067 265.53 24.32C265.303 23.9333 265.003 23.6333 264.63 23.42C264.27 23.2067 263.863 23.1 263.41 23.1ZM275.168 32.3C274.422 32.3 273.735 32.1667 273.108 31.9C272.482 31.62 271.935 31.24 271.468 30.76C271.002 30.2667 270.635 29.6867 270.368 29.02C270.115 28.3533 269.988 27.6267 269.988 26.84C269.988 26.0533 270.122 25.32 270.388 24.64C270.655 23.96 271.022 23.3667 271.488 22.86C271.955 22.3533 272.502 21.96 273.128 21.68C273.768 21.3867 274.462 21.24 275.208 21.24C275.928 21.24 276.588 21.3733 277.188 21.64C277.788 21.8933 278.302 22.26 278.728 22.74C279.168 23.2067 279.482 23.76 279.668 24.4L277.488 24.92C277.262 24.4133 276.942 24.02 276.528 23.74C276.128 23.46 275.675 23.32 275.168 23.32C274.635 23.32 274.155 23.4733 273.728 23.78C273.302 24.0867 272.962 24.5067 272.708 25.04C272.468 25.56 272.348 26.1533 272.348 26.82C272.348 27.4733 272.468 28.06 272.708 28.58C272.948 29.0867 273.275 29.4867 273.688 29.78C274.115 30.0733 274.608 30.22 275.168 30.22C275.702 30.22 276.188 30.0867 276.628 29.82C277.068 29.54 277.395 29.1467 277.608 28.64L279.768 29.14C279.582 29.78 279.262 30.34 278.808 30.82C278.355 31.2867 277.815 31.6533 277.188 31.92C276.562 32.1733 275.888 32.3 275.168 32.3ZM285.901 32.3C284.848 32.3 284.021 32 283.421 31.4C282.821 30.7867 282.521 29.9133 282.521 28.78V23.4H280.681V21.54H282.521V18H284.821V21.54H287.861V23.4H284.821V28.54C284.821 29.1 284.934 29.5333 285.161 29.84C285.401 30.1333 285.748 30.28 286.201 30.28C286.441 30.28 286.701 30.2467 286.981 30.18C287.261 30.1 287.521 29.9933 287.761 29.86L288.281 31.6C287.974 31.8133 287.614 31.98 287.201 32.1C286.801 32.2333 286.368 32.3 285.901 32.3Z" fill="white"/>
<defs>
<linearGradient id="paint0_linear_370_1240" x1="-29.9355" y1="25" x2="523.871" y2="25" gradientUnits="userSpaceOnUse">
<stop stop-color="#3B28CC"/>
<stop offset="0.953643" stop-color="#E83151"/>
</linearGradient>
</defs>
</svg>
