<svg width="464" height="50" viewBox="0 0 464 50" fill="none" xmlns="http://www.w3.org/2000/svg">
<path d="M0 25C0 11.1929 11.1929 0 25 0H439C452.807 0 464 11.1929 464 25C464 38.8071 452.807 50 439 50H25C11.1929 50 0 38.8071 0 25Z" fill="url(#paint0_linear_421_432)"/>
<path d="M194.632 32V17.8H199.552C200.485 17.8 201.285 17.9533 201.952 18.26C202.632 18.5533 203.158 18.9733 203.532 19.52C203.905 20.0667 204.092 20.7133 204.092 21.46C204.092 22.14 203.932 22.74 203.612 23.26C203.305 23.78 202.858 24.1867 202.272 24.48C203.032 24.7467 203.625 25.1933 204.052 25.82C204.478 26.4333 204.692 27.1533 204.692 27.98C204.692 28.7933 204.485 29.5 204.072 30.1C203.658 30.7 203.072 31.1667 202.312 31.5C201.565 31.8333 200.678 32 199.652 32H194.632ZM196.992 19.88V23.64H199.332C200.078 23.64 200.652 23.48 201.052 23.16C201.452 22.84 201.652 22.3733 201.652 21.76C201.652 21.1733 201.445 20.7133 201.032 20.38C200.632 20.0467 200.065 19.88 199.332 19.88H196.992ZM196.992 29.92H199.552C200.405 29.92 201.065 29.7333 201.532 29.36C201.998 28.9733 202.232 28.4467 202.232 27.78C202.232 27.0867 201.998 26.5533 201.532 26.18C201.065 25.8067 200.405 25.62 199.552 25.62H196.992V29.92ZM211.337 32.3C210.404 32.3 209.591 32.1 208.897 31.7C208.217 31.3 207.684 30.7333 207.297 30C206.924 29.2533 206.737 28.38 206.737 27.38V21.54H209.037V27.42C209.037 28.2867 209.244 28.9733 209.657 29.48C210.071 29.9733 210.637 30.22 211.357 30.22C212.077 30.22 212.644 29.9733 213.057 29.48C213.471 28.9733 213.677 28.2867 213.677 27.42V21.54H215.977V27.38C215.977 28.3667 215.784 29.2333 215.397 29.98C215.024 30.7133 214.491 31.2867 213.797 31.7C213.104 32.1 212.284 32.3 211.337 32.3ZM219.856 36.16C219.523 36.16 219.209 36.1267 218.916 36.06C218.636 35.9933 218.363 35.8867 218.096 35.74L218.596 33.92C218.743 33.9867 218.909 34.04 219.096 34.08C219.283 34.1333 219.463 34.16 219.636 34.16C220.036 34.16 220.383 34.0467 220.676 33.82C220.983 33.5933 221.236 33.2267 221.436 32.72L221.756 31.9L217.496 21.54H220.016L222.836 29.36L225.396 21.54H227.836L223.396 33.26C223.009 34.26 222.523 34.9933 221.936 35.46C221.363 35.9267 220.669 36.16 219.856 36.16ZM238.192 32L232.752 17.8H235.412L239.552 29.24L243.672 17.8H246.232L240.792 32H238.192ZM250.195 18.62C250.195 18.8733 250.129 19.1067 249.995 19.32C249.875 19.5333 249.709 19.7067 249.495 19.84C249.282 19.96 249.049 20.02 248.795 20.02C248.542 20.02 248.309 19.96 248.095 19.84C247.882 19.7067 247.709 19.5333 247.575 19.32C247.455 19.1067 247.395 18.8733 247.395 18.62C247.395 18.3667 247.455 18.1333 247.575 17.92C247.709 17.7067 247.882 17.54 248.095 17.42C248.309 17.2867 248.542 17.22 248.795 17.22C249.049 17.22 249.282 17.2867 249.495 17.42C249.709 17.54 249.875 17.7067 249.995 17.92C250.129 18.1333 250.195 18.3667 250.195 18.62ZM247.655 32V21.54H249.955V32H247.655ZM255.48 32L251.48 21.54H254L256.68 29.6L259.38 21.54H261.82L257.82 32H255.48ZM266.207 32.3C265.674 32.3 265.18 32.22 264.727 32.06C264.287 31.9 263.9 31.6733 263.567 31.38C263.234 31.0867 262.974 30.74 262.787 30.34C262.6 29.94 262.507 29.5 262.507 29.02C262.507 28.3533 262.68 27.7733 263.027 27.28C263.387 26.7733 263.887 26.38 264.527 26.1C265.167 25.82 265.914 25.68 266.767 25.68C267.234 25.68 267.68 25.7267 268.107 25.82C268.534 25.9 268.94 26.02 269.327 26.18V25.52C269.327 25.0533 269.24 24.6467 269.067 24.3C268.894 23.94 268.647 23.66 268.327 23.46C268.007 23.26 267.62 23.16 267.167 23.16C266.687 23.16 266.254 23.2867 265.867 23.54C265.48 23.7933 265.194 24.1467 265.007 24.6L262.887 24.12C263.047 23.5333 263.334 23.0267 263.747 22.6C264.174 22.1733 264.68 21.84 265.267 21.6C265.867 21.36 266.514 21.24 267.207 21.24C267.86 21.24 268.454 21.3467 268.987 21.56C269.534 21.7733 270 22.0733 270.387 22.46C270.774 22.8467 271.074 23.3067 271.287 23.84C271.5 24.3733 271.607 24.9667 271.607 25.62V32H269.507L269.427 30.62C269.147 31.1267 268.727 31.5333 268.167 31.84C267.607 32.1467 266.954 32.3 266.207 32.3ZM264.827 28.92C264.827 29.2133 264.907 29.48 265.067 29.72C265.227 29.9467 265.447 30.1267 265.727 30.26C266.02 30.3933 266.36 30.46 266.747 30.46C267.24 30.46 267.68 30.3533 268.067 30.14C268.454 29.9267 268.76 29.64 268.987 29.28C269.214 28.9067 269.327 28.4867 269.327 28.02V27.78C268.98 27.6333 268.62 27.52 268.247 27.44C267.887 27.3467 267.514 27.3 267.127 27.3C266.434 27.3 265.874 27.4467 265.447 27.74C265.034 28.0333 264.827 28.4267 264.827 28.92Z" fill="white"/>
<defs>
<linearGradient id="paint0_linear_421_432" x1="-29.9355" y1="25" x2="523.871" y2="25" gradientUnits="userSpaceOnUse">
<stop stop-color="#3B28CC"/>
<stop offset="0.953643" stop-color="#E83151"/>
</linearGradient>
</defs>
</svg>
