<svg width="48" height="48" viewBox="0 0 48 48" fill="none" xmlns="http://www.w3.org/2000/svg">
<mask id="mask0_274_488" style="mask-type:alpha" maskUnits="userSpaceOnUse" x="0" y="0" width="48" height="48">
<rect width="48" height="48" fill="#D9D9D9"/>
</mask>
<g mask="url(#mask0_274_488)">
<path d="M6 27.8V24.8C8.6 24.8 11.0417 24.3083 13.325 23.325C15.6083 22.3417 17.6 21 19.3 19.3C21 17.6 22.3417 15.6083 23.325 13.325C24.3083 11.0417 24.8 8.6 24.8 6H27.8C27.8 9 27.2333 11.825 26.1 14.475C24.9667 17.125 23.4083 19.4417 21.425 21.425C19.4417 23.4083 17.125 24.9667 14.475 26.1C11.825 27.2333 9 27.8 6 27.8ZM6 21.8V18.8C9.53333 18.8 12.55 17.55 15.05 15.05C17.55 12.55 18.8 9.53333 18.8 6H21.8C21.8 10.4 20.2667 14.1333 17.2 17.2C14.1333 20.2667 10.4 21.8 6 21.8ZM6 15.8V6H15.8C15.8 8.7 14.8417 11.0083 12.925 12.925C11.0083 14.8417 8.7 15.8 6 15.8ZM20.2 42C20.2 39 20.7667 36.175 21.9 33.525C23.0333 30.875 24.5917 28.5583 26.575 26.575C28.5583 24.5917 30.875 23.0333 33.525 21.9C36.175 20.7667 39 20.2 42 20.2V23.2C39.4 23.2 36.9583 23.6917 34.675 24.675C32.3917 25.6583 30.4 27 28.7 28.7C27 30.4 25.6583 32.3917 24.675 34.675C23.6917 36.9583 23.2 39.4 23.2 42H20.2ZM26.2 42C26.2 37.6 27.7333 33.8667 30.8 30.8C33.8667 27.7333 37.6 26.2 42 26.2V29.2C38.4667 29.2 35.45 30.45 32.95 32.95C30.45 35.45 29.2 38.4667 29.2 42H26.2ZM32.2 42C32.2 39.3 33.1583 36.9917 35.075 35.075C36.9917 33.1583 39.3 32.2 42 32.2V42H32.2Z" fill="white"/>
</g>
</svg>
