<svg width="1199" height="77" viewBox="0 0 1199 77" fill="none" xmlns="http://www.w3.org/2000/svg">
<path d="M15.76 62V19.28H0.8V5.2H46.72V19.28H31.76V62H15.76ZM53.0844 62V2H68.0444V23.6C69.271 21.7867 70.871 20.3733 72.8444 19.36C74.871 18.2933 77.1377 17.76 79.6444 17.76C82.6844 17.76 85.2977 18.5067 87.4844 20C89.7244 21.44 91.4577 23.52 92.6844 26.24C93.911 28.96 94.5244 32.1333 94.5244 35.76V62H79.5644V38C79.5644 35.9733 79.0844 34.3467 78.1244 33.12C77.1644 31.8933 75.8577 31.28 74.2044 31.28C72.9777 31.28 71.911 31.5733 71.0044 32.16C70.0977 32.7467 69.3777 33.5467 68.8444 34.56C68.311 35.5733 68.0444 36.72 68.0444 38V62H53.0844ZM122.796 63.2C119.543 63.2 116.556 62.64 113.836 61.52C111.116 60.4 108.77 58.8267 106.796 56.8C104.823 54.7733 103.276 52.3733 102.156 49.6C101.09 46.7733 100.556 43.68 100.556 40.32C100.556 37.12 101.09 34.16 102.156 31.44C103.276 28.6667 104.823 26.2667 106.796 24.24C108.823 22.16 111.17 20.56 113.836 19.44C116.503 18.32 119.41 17.76 122.556 17.76C125.916 17.76 128.93 18.32 131.596 19.44C134.316 20.56 136.636 22.16 138.556 24.24C140.476 26.32 141.943 28.8267 142.956 31.76C144.023 34.64 144.556 37.8933 144.556 41.52V44.24H115.836C116.316 46.5333 117.196 48.2933 118.476 49.52C119.756 50.6933 121.356 51.28 123.276 51.28C126.103 51.28 128.37 50.0533 130.076 47.6L143.756 50.64C142.69 53.2 141.116 55.4133 139.036 57.28C137.01 59.1467 134.583 60.6133 131.756 61.68C128.983 62.6933 125.996 63.2 122.796 63.2ZM122.556 28.4C120.743 28.4 119.25 28.9867 118.076 30.16C116.903 31.3333 116.103 33.04 115.676 35.28H129.116C128.743 33.04 127.996 31.3333 126.876 30.16C125.756 28.9867 124.316 28.4 122.556 28.4ZM166.366 62V2H181.326V23.92C182.766 22 184.579 20.5067 186.766 19.44C188.952 18.32 191.326 17.76 193.886 17.76C196.552 17.76 199.032 18.3467 201.326 19.52C203.619 20.64 205.619 22.24 207.326 24.32C209.032 26.3467 210.366 28.72 211.326 31.44C212.286 34.16 212.766 37.0933 212.766 40.24C212.766 43.4933 212.259 46.5067 211.246 49.28C210.232 52.0533 208.819 54.48 207.006 56.56C205.192 58.64 203.059 60.2667 200.606 61.44C198.206 62.6133 195.592 63.2 192.766 63.2C190.099 63.2 187.726 62.6667 185.646 61.6C183.566 60.48 181.859 58.88 180.526 56.8L180.206 62H166.366ZM189.326 49.76C190.926 49.76 192.339 49.36 193.566 48.56C194.792 47.76 195.752 46.6667 196.446 45.28C197.192 43.8933 197.566 42.32 197.566 40.56C197.566 38.8 197.192 37.2267 196.446 35.84C195.752 34.4533 194.792 33.36 193.566 32.56C192.339 31.76 190.926 31.36 189.326 31.36C187.779 31.36 186.392 31.76 185.166 32.56C183.939 33.36 182.979 34.4533 182.286 35.84C181.592 37.2267 181.246 38.8 181.246 40.56C181.246 42.32 181.592 43.8933 182.286 45.28C182.979 46.6667 183.939 47.76 185.166 48.56C186.392 49.36 187.779 49.76 189.326 49.76ZM240.218 63.2C236.965 63.2 233.978 62.64 231.258 61.52C228.538 60.4 226.191 58.8267 224.218 56.8C222.245 54.7733 220.698 52.3733 219.578 49.6C218.511 46.7733 217.978 43.68 217.978 40.32C217.978 37.12 218.511 34.16 219.578 31.44C220.698 28.6667 222.245 26.2667 224.218 24.24C226.245 22.16 228.591 20.56 231.258 19.44C233.925 18.32 236.831 17.76 239.978 17.76C243.338 17.76 246.351 18.32 249.018 19.44C251.738 20.56 254.058 22.16 255.978 24.24C257.898 26.32 259.365 28.8267 260.378 31.76C261.445 34.64 261.978 37.8933 261.978 41.52V44.24H233.258C233.738 46.5333 234.618 48.2933 235.898 49.52C237.178 50.6933 238.778 51.28 240.698 51.28C243.525 51.28 245.791 50.0533 247.498 47.6L261.178 50.64C260.111 53.2 258.538 55.4133 256.458 57.28C254.431 59.1467 252.005 60.6133 249.178 61.68C246.405 62.6933 243.418 63.2 240.218 63.2ZM239.978 28.4C238.165 28.4 236.671 28.9867 235.498 30.16C234.325 31.3333 233.525 33.04 233.098 35.28H246.538C246.165 33.04 245.418 31.3333 244.298 30.16C243.178 28.9867 241.738 28.4 239.978 28.4ZM285.277 63.2C282.077 63.2 279.17 62.7467 276.557 61.84C273.944 60.88 271.73 59.52 269.917 57.76C268.104 56 266.797 53.92 265.997 51.52L279.437 49.36C279.81 50.4267 280.53 51.28 281.597 51.92C282.717 52.5067 283.997 52.8 285.437 52.8C286.824 52.8 287.917 52.5333 288.717 52C289.517 51.4133 289.917 50.64 289.917 49.68C289.917 48.6667 289.437 47.8933 288.477 47.36C287.517 46.8267 285.864 46.4 283.517 46.08L281.997 45.84C277.197 45.0933 273.517 43.5467 270.957 41.2C268.397 38.8533 267.117 35.8667 267.117 32.24C267.117 30.1067 267.544 28.16 268.397 26.4C269.25 24.64 270.477 23.12 272.077 21.84C273.677 20.56 275.544 19.5733 277.677 18.88C279.864 18.1333 282.29 17.76 284.957 17.76C287.944 17.76 290.664 18.24 293.117 19.2C295.624 20.1067 297.73 21.4133 299.437 23.12C301.144 24.8267 302.344 26.8267 303.037 29.12L289.757 31.28C288.85 29.2 287.25 28.16 284.957 28.16C283.73 28.16 282.744 28.4533 281.997 29.04C281.25 29.5733 280.877 30.2933 280.877 31.2C280.877 31.7867 281.037 32.2933 281.357 32.72C281.73 33.0933 282.344 33.44 283.197 33.76C284.104 34.0267 285.33 34.2667 286.877 34.48L288.397 34.72C293.41 35.52 297.224 37.0667 299.837 39.36C302.45 41.6533 303.757 44.6133 303.757 48.24C303.757 50.48 303.304 52.5067 302.397 54.32C301.544 56.1333 300.29 57.7067 298.637 59.04C296.984 60.3733 295.01 61.3867 292.717 62.08C290.477 62.8267 287.997 63.2 285.277 63.2ZM328.643 63.2C323.576 63.2 319.709 61.84 317.043 59.12C314.376 56.3467 313.043 52.3733 313.043 47.2V30.4H306.163V18.96H313.043V4.16H328.003V18.96H338.403V30.4H328.003V45.76C328.003 49.2267 329.496 50.96 332.483 50.96C333.336 50.96 334.216 50.8533 335.123 50.64C336.083 50.4267 336.989 50.1333 337.843 49.76L339.843 60.4C336.749 62.2667 333.016 63.2 328.643 63.2ZM361.209 62V18.96H375.049L375.449 24.8C376.623 22.6667 378.249 20.96 380.329 19.68C382.409 18.4 384.756 17.76 387.369 17.76C390.036 17.76 392.409 18.4267 394.489 19.76C396.623 21.0933 398.303 22.9867 399.529 25.44C400.809 23.0933 402.649 21.2267 405.049 19.84C407.449 18.4533 410.169 17.76 413.209 17.76C416.356 17.76 419.076 18.5067 421.369 20C423.663 21.4933 425.423 23.6533 426.649 26.48C427.876 29.2533 428.489 32.56 428.489 36.4V62H413.529V38.24C413.529 36.16 413.049 34.48 412.089 33.2C411.129 31.92 409.876 31.28 408.329 31.28C407.156 31.28 406.116 31.6 405.209 32.24C404.356 32.8267 403.663 33.6533 403.129 34.72C402.596 35.7333 402.329 36.9067 402.329 38.24V62H387.369V38.24C387.369 36.1067 386.889 34.4267 385.929 33.2C384.969 31.92 383.689 31.28 382.089 31.28C380.916 31.28 379.876 31.6 378.969 32.24C378.116 32.8267 377.423 33.6533 376.889 34.72C376.409 35.7333 376.169 36.9067 376.169 38.24V62H361.209ZM455.983 63.2C451.876 63.2 448.276 62.3467 445.183 60.64C442.143 58.9333 439.796 56.5333 438.143 53.44C436.489 50.2933 435.663 46.6133 435.663 42.4V18.96H450.623V42.72C450.623 44.9067 451.129 46.6133 452.143 47.84C453.156 49.0667 454.543 49.68 456.303 49.68C458.009 49.68 459.343 49.0667 460.303 47.84C461.316 46.6133 461.823 44.9067 461.823 42.72V18.96H476.783V42.4C476.783 45.5467 476.276 48.4 475.263 50.96C474.303 53.4667 472.889 55.6533 471.023 57.52C469.209 59.3333 467.023 60.7467 464.463 61.76C461.956 62.72 459.129 63.2 455.983 63.2ZM483.944 62V2H498.904V62H483.944ZM526.611 63.2C521.545 63.2 517.678 61.84 515.011 59.12C512.345 56.3467 511.011 52.3733 511.011 47.2V30.4H504.131V18.96H511.011V4.16H525.971V18.96H536.371V30.4H525.971V45.76C525.971 49.2267 527.465 50.96 530.451 50.96C531.305 50.96 532.185 50.8533 533.091 50.64C534.051 50.4267 534.958 50.1333 535.811 49.76L537.811 60.4C534.718 62.2667 530.985 63.2 526.611 63.2ZM558.446 7.84C558.446 9.28 558.1 10.5867 557.406 11.76C556.713 12.9333 555.753 13.8667 554.526 14.56C553.3 15.2 551.94 15.52 550.446 15.52C548.953 15.52 547.593 15.2 546.366 14.56C545.193 13.8667 544.26 12.9333 543.566 11.76C542.873 10.5867 542.526 9.28 542.526 7.84C542.526 6.4 542.873 5.09333 543.566 3.92C544.26 2.74667 545.193 1.84 546.366 1.2C547.593 0.506662 548.953 0.159995 550.446 0.159995C551.94 0.159995 553.3 0.506662 554.526 1.2C555.753 1.84 556.713 2.74667 557.406 3.92C558.1 5.09333 558.446 6.4 558.446 7.84ZM543.006 62V18.96H557.966V62H543.006ZM586.154 63.2C583.007 63.2 580.074 62.64 577.354 61.52C574.687 60.4 572.34 58.8267 570.314 56.8C568.34 54.7733 566.794 52.4267 565.674 49.76C564.554 47.04 563.994 44.08 563.994 40.88C563.994 37.5733 564.554 34.5333 565.674 31.76C566.847 28.9333 568.447 26.48 570.474 24.4C572.5 22.32 574.874 20.6933 577.594 19.52C580.367 18.3467 583.354 17.76 586.554 17.76C589.967 17.76 593.087 18.4267 595.914 19.76C598.74 21.0933 601.114 22.9867 603.034 25.44C604.954 27.84 606.234 30.64 606.874 33.84L592.794 36C592.207 34.5067 591.354 33.36 590.234 32.56C589.167 31.7067 587.967 31.28 586.634 31.28C585.194 31.28 583.914 31.68 582.794 32.48C581.674 33.28 580.794 34.3733 580.154 35.76C579.514 37.1467 579.194 38.7467 579.194 40.56C579.194 42.3733 579.514 43.9733 580.154 45.36C580.794 46.6933 581.674 47.76 582.794 48.56C583.914 49.3067 585.194 49.68 586.634 49.68C588.127 49.68 589.434 49.28 590.554 48.48C591.727 47.6267 592.607 46.4533 593.194 44.96L607.274 47.12C606.794 49.52 605.914 51.7067 604.634 53.68C603.407 55.6 601.86 57.28 599.994 58.72C598.127 60.16 596.02 61.2533 593.674 62C591.327 62.8 588.82 63.2 586.154 63.2ZM612.459 62V2H627.419V23.6C628.646 21.7867 630.246 20.3733 632.219 19.36C634.246 18.2933 636.513 17.76 639.019 17.76C642.059 17.76 644.673 18.5067 646.859 20C649.099 21.44 650.833 23.52 652.059 26.24C653.286 28.96 653.899 32.1333 653.899 35.76V62H638.939V38C638.939 35.9733 638.459 34.3467 637.499 33.12C636.539 31.8933 635.233 31.28 633.579 31.28C632.353 31.28 631.286 31.5733 630.379 32.16C629.473 32.7467 628.753 33.5467 628.219 34.56C627.686 35.5733 627.419 36.72 627.419 38V62H612.459ZM673.851 63.2C671.771 63.2 669.825 62.8533 668.011 62.16C666.251 61.52 664.705 60.6133 663.371 59.44C662.038 58.2133 660.998 56.8 660.251 55.2C659.505 53.6 659.131 51.8667 659.131 50C659.131 47.2267 659.878 44.8 661.371 42.72C662.865 40.64 664.945 39.0133 667.611 37.84C670.331 36.6667 673.478 36.08 677.051 36.08C678.598 36.08 679.985 36.1867 681.211 36.4C682.438 36.6133 683.745 36.9867 685.131 37.52V35.44C685.131 33.6267 684.598 32.16 683.531 31.04C682.518 29.8667 681.185 29.28 679.531 29.28C678.251 29.28 677.131 29.6267 676.171 30.32C675.211 30.96 674.545 31.8133 674.171 32.88L660.651 30.8C661.078 28.88 661.878 27.12 663.051 25.52C664.225 23.92 665.665 22.56 667.371 21.44C669.078 20.2667 670.971 19.36 673.051 18.72C675.185 18.08 677.451 17.76 679.851 17.76C682.785 17.76 685.451 18.2133 687.851 19.12C690.305 20.0267 692.411 21.3067 694.171 22.96C695.931 24.56 697.291 26.5067 698.251 28.8C699.211 31.04 699.691 33.52 699.691 36.24V62H686.251L685.851 56.96C684.785 58.9333 683.185 60.48 681.051 61.6C678.971 62.6667 676.571 63.2 673.851 63.2ZM673.771 48.96C673.771 50.0267 674.198 50.9333 675.051 51.68C675.958 52.3733 677.078 52.72 678.411 52.72C679.638 52.72 680.758 52.4533 681.771 51.92C682.838 51.3333 683.665 50.5867 684.251 49.68C684.838 48.72 685.131 47.6267 685.131 46.4V45.92C684.385 45.6 683.558 45.3333 682.651 45.12C681.745 44.9067 680.865 44.8 680.011 44.8C678.091 44.8 676.571 45.1733 675.451 45.92C674.331 46.6667 673.771 47.68 673.771 48.96ZM722.353 7.84C722.353 9.28 722.006 10.5867 721.313 11.76C720.619 12.9333 719.659 13.8667 718.433 14.56C717.206 15.2 715.846 15.52 714.353 15.52C712.859 15.52 711.499 15.2 710.273 14.56C709.099 13.8667 708.166 12.9333 707.473 11.76C706.779 10.5867 706.433 9.28 706.433 7.84C706.433 6.4 706.779 5.09333 707.473 3.92C708.166 2.74667 709.099 1.84 710.273 1.2C711.499 0.506662 712.859 0.159995 714.353 0.159995C715.846 0.159995 717.206 0.506662 718.433 1.2C719.659 1.84 720.619 2.74667 721.313 3.92C722.006 5.09333 722.353 6.4 722.353 7.84ZM706.913 62V18.96H721.873V62H706.913ZM729.1 62V18.96H742.94L743.34 24.8C744.513 22.6133 746.167 20.9067 748.3 19.68C750.433 18.4 752.887 17.76 755.66 17.76C758.7 17.76 761.313 18.5067 763.5 20C765.74 21.44 767.473 23.52 768.7 26.24C769.927 28.96 770.54 32.1333 770.54 35.76V62H755.58V38C755.58 35.9733 755.1 34.3467 754.14 33.12C753.18 31.8933 751.873 31.28 750.22 31.28C748.993 31.28 747.927 31.5733 747.02 32.16C746.113 32.7467 745.393 33.5467 744.86 34.56C744.327 35.5733 744.06 36.72 744.06 38V62H729.1ZM793.944 62V2H808.904V62H793.944ZM828.851 63.2C826.771 63.2 824.825 62.8533 823.011 62.16C821.251 61.52 819.705 60.6133 818.371 59.44C817.038 58.2133 815.998 56.8 815.251 55.2C814.505 53.6 814.131 51.8667 814.131 50C814.131 47.2267 814.878 44.8 816.371 42.72C817.865 40.64 819.945 39.0133 822.611 37.84C825.331 36.6667 828.478 36.08 832.051 36.08C833.598 36.08 834.985 36.1867 836.211 36.4C837.438 36.6133 838.745 36.9867 840.131 37.52V35.44C840.131 33.6267 839.598 32.16 838.531 31.04C837.518 29.8667 836.185 29.28 834.531 29.28C833.251 29.28 832.131 29.6267 831.171 30.32C830.211 30.96 829.545 31.8133 829.171 32.88L815.651 30.8C816.078 28.88 816.878 27.12 818.051 25.52C819.225 23.92 820.665 22.56 822.371 21.44C824.078 20.2667 825.971 19.36 828.051 18.72C830.185 18.08 832.451 17.76 834.851 17.76C837.785 17.76 840.451 18.2133 842.851 19.12C845.305 20.0267 847.411 21.3067 849.171 22.96C850.931 24.56 852.291 26.5067 853.251 28.8C854.211 31.04 854.691 33.52 854.691 36.24V62H841.251L840.851 56.96C839.785 58.9333 838.185 60.48 836.051 61.6C833.971 62.6667 831.571 63.2 828.851 63.2ZM828.771 48.96C828.771 50.0267 829.198 50.9333 830.051 51.68C830.958 52.3733 832.078 52.72 833.411 52.72C834.638 52.72 835.758 52.4533 836.771 51.92C837.838 51.3333 838.665 50.5867 839.251 49.68C839.838 48.72 840.131 47.6267 840.131 46.4V45.92C839.385 45.6 838.558 45.3333 837.651 45.12C836.745 44.9067 835.865 44.8 835.011 44.8C833.091 44.8 831.571 45.1733 830.451 45.92C829.331 46.6667 828.771 47.68 828.771 48.96ZM882.233 63.2C878.126 63.2 874.526 62.3467 871.433 60.64C868.393 58.9333 866.046 56.5333 864.393 53.44C862.739 50.2933 861.913 46.6133 861.913 42.4V18.96H876.873V42.72C876.873 44.9067 877.379 46.6133 878.393 47.84C879.406 49.0667 880.793 49.68 882.553 49.68C884.259 49.68 885.593 49.0667 886.553 47.84C887.566 46.6133 888.073 44.9067 888.073 42.72V18.96H903.033V42.4C903.033 45.5467 902.526 48.4 901.513 50.96C900.553 53.4667 899.139 55.6533 897.273 57.52C895.459 59.3333 893.273 60.7467 890.713 61.76C888.206 62.72 885.379 63.2 882.233 63.2ZM910.194 62V18.96H924.034L924.434 24.8C925.607 22.6133 927.26 20.9067 929.394 19.68C931.527 18.4 933.98 17.76 936.754 17.76C939.794 17.76 942.407 18.5067 944.594 20C946.834 21.44 948.567 23.52 949.794 26.24C951.02 28.96 951.634 32.1333 951.634 35.76V62H936.674V38C936.674 35.9733 936.194 34.3467 935.234 33.12C934.274 31.8933 932.967 31.28 931.314 31.28C930.087 31.28 929.02 31.5733 928.114 32.16C927.207 32.7467 926.487 33.5467 925.954 34.56C925.42 35.5733 925.154 36.72 925.154 38V62H910.194ZM979.826 63.2C976.679 63.2 973.746 62.64 971.026 61.52C968.359 60.4 966.012 58.8267 963.986 56.8C962.012 54.7733 960.466 52.4267 959.346 49.76C958.226 47.04 957.666 44.08 957.666 40.88C957.666 37.5733 958.226 34.5333 959.346 31.76C960.519 28.9333 962.119 26.48 964.146 24.4C966.172 22.32 968.546 20.6933 971.266 19.52C974.039 18.3467 977.026 17.76 980.226 17.76C983.639 17.76 986.759 18.4267 989.586 19.76C992.412 21.0933 994.786 22.9867 996.706 25.44C998.626 27.84 999.906 30.64 1000.55 33.84L986.466 36C985.879 34.5067 985.026 33.36 983.906 32.56C982.839 31.7067 981.639 31.28 980.306 31.28C978.866 31.28 977.586 31.68 976.466 32.48C975.346 33.28 974.466 34.3733 973.826 35.76C973.186 37.1467 972.866 38.7467 972.866 40.56C972.866 42.3733 973.186 43.9733 973.826 45.36C974.466 46.6933 975.346 47.76 976.466 48.56C977.586 49.3067 978.866 49.68 980.306 49.68C981.799 49.68 983.106 49.28 984.226 48.48C985.399 47.6267 986.279 46.4533 986.866 44.96L1000.95 47.12C1000.47 49.52 999.586 51.7067 998.306 53.68C997.079 55.6 995.532 57.28 993.666 58.72C991.799 60.16 989.692 61.2533 987.346 62C984.999 62.8 982.492 63.2 979.826 63.2ZM1006.13 62V2H1021.09V23.6C1022.32 21.7867 1023.92 20.3733 1025.89 19.36C1027.92 18.2933 1030.18 17.76 1032.69 17.76C1035.73 17.76 1038.34 18.5067 1040.53 20C1042.77 21.44 1044.5 23.52 1045.73 26.24C1046.96 28.96 1047.57 32.1333 1047.57 35.76V62H1032.61V38C1032.61 35.9733 1032.13 34.3467 1031.17 33.12C1030.21 31.8933 1028.9 31.28 1027.25 31.28C1026.02 31.28 1024.96 31.5733 1024.05 32.16C1023.14 32.7467 1022.42 33.5467 1021.89 34.56C1021.36 35.5733 1021.09 36.72 1021.09 38V62H1006.13ZM1054.8 76.96V18.96H1068.64L1069.04 25.04C1070.43 22.8 1072.27 21.04 1074.56 19.76C1076.91 18.4267 1079.47 17.76 1082.24 17.76C1084.91 17.76 1087.39 18.3467 1089.68 19.52C1091.98 20.64 1093.98 22.2133 1095.68 24.24C1097.44 26.2667 1098.8 28.64 1099.76 31.36C1100.72 34.08 1101.2 37.0133 1101.2 40.16C1101.2 43.4133 1100.7 46.4533 1099.68 49.28C1098.67 52.0533 1097.26 54.48 1095.44 56.56C1093.63 58.64 1091.5 60.2667 1089.04 61.44C1086.64 62.6133 1084.03 63.2 1081.2 63.2C1078.8 63.2 1076.62 62.7467 1074.64 61.84C1072.72 60.9333 1071.1 59.6267 1069.76 57.92V76.96H1054.8ZM1077.76 49.76C1079.36 49.76 1080.78 49.36 1082 48.56C1083.23 47.76 1084.19 46.6667 1084.88 45.28C1085.63 43.8933 1086 42.32 1086 40.56C1086 38.8 1085.63 37.2267 1084.88 35.84C1084.19 34.4533 1083.23 33.36 1082 32.56C1080.78 31.76 1079.36 31.36 1077.76 31.36C1076.22 31.36 1074.83 31.76 1073.6 32.56C1072.38 33.36 1071.42 34.4533 1070.72 35.84C1070.03 37.2267 1069.68 38.8 1069.68 40.56C1069.68 42.32 1070.03 43.8933 1070.72 45.28C1071.42 46.6667 1072.38 47.76 1073.6 48.56C1074.83 49.36 1076.22 49.76 1077.76 49.76ZM1119.95 63.2C1117.87 63.2 1115.92 62.8533 1114.11 62.16C1112.35 61.52 1110.8 60.6133 1109.47 59.44C1108.13 58.2133 1107.09 56.8 1106.35 55.2C1105.6 53.6 1105.23 51.8667 1105.23 50C1105.23 47.2267 1105.97 44.8 1107.47 42.72C1108.96 40.64 1111.04 39.0133 1113.71 37.84C1116.43 36.6667 1119.57 36.08 1123.15 36.08C1124.69 36.08 1126.08 36.1867 1127.31 36.4C1128.53 36.6133 1129.84 36.9867 1131.23 37.52V35.44C1131.23 33.6267 1130.69 32.16 1129.63 31.04C1128.61 29.8667 1127.28 29.28 1125.63 29.28C1124.35 29.28 1123.23 29.6267 1122.27 30.32C1121.31 30.96 1120.64 31.8133 1120.27 32.88L1106.75 30.8C1107.17 28.88 1107.97 27.12 1109.15 25.52C1110.32 23.92 1111.76 22.56 1113.47 21.44C1115.17 20.2667 1117.07 19.36 1119.15 18.72C1121.28 18.08 1123.55 17.76 1125.95 17.76C1128.88 17.76 1131.55 18.2133 1133.95 19.12C1136.4 20.0267 1138.51 21.3067 1140.27 22.96C1142.03 24.56 1143.39 26.5067 1144.35 28.8C1145.31 31.04 1145.79 33.52 1145.79 36.24V62H1132.35L1131.95 56.96C1130.88 58.9333 1129.28 60.48 1127.14 61.6C1125.07 62.6667 1122.67 63.2 1119.95 63.2ZM1119.87 48.96C1119.87 50.0267 1120.29 50.9333 1121.15 51.68C1122.05 52.3733 1123.17 52.72 1124.51 52.72C1125.73 52.72 1126.85 52.4533 1127.87 51.92C1128.93 51.3333 1129.76 50.5867 1130.35 49.68C1130.93 48.72 1131.23 47.6267 1131.23 46.4V45.92C1130.48 45.6 1129.65 45.3333 1128.75 45.12C1127.84 44.9067 1126.96 44.8 1126.11 44.8C1124.19 44.8 1122.67 45.1733 1121.55 45.92C1120.43 46.6667 1119.87 47.68 1119.87 48.96ZM1170.77 63.2C1168.1 63.2 1165.62 62.64 1163.33 61.52C1161.03 60.3467 1159.01 58.7467 1157.25 56.72C1155.54 54.6933 1154.21 52.32 1153.25 49.6C1152.29 46.88 1151.81 43.9467 1151.81 40.8C1151.81 37.5467 1152.31 34.5333 1153.33 31.76C1154.34 28.9333 1155.75 26.48 1157.57 24.4C1159.38 22.32 1161.49 20.6933 1163.89 19.52C1166.34 18.3467 1168.98 17.76 1171.81 17.76C1174.21 17.76 1176.37 18.2133 1178.29 19.12C1180.26 20.0267 1181.91 21.3333 1183.25 23.04V2H1198.21V62H1184.37L1183.97 55.92C1182.58 58.16 1180.71 59.9467 1178.37 61.28C1176.07 62.56 1173.54 63.2 1170.77 63.2ZM1175.25 49.6C1176.79 49.6 1178.18 49.2 1179.41 48.4C1180.63 47.6 1181.59 46.5067 1182.29 45.12C1182.98 43.7333 1183.33 42.16 1183.33 40.4C1183.33 38.64 1182.98 37.0667 1182.29 35.68C1181.59 34.2933 1180.63 33.2 1179.41 32.4C1178.18 31.6 1176.79 31.2 1175.25 31.2C1173.7 31.2 1172.29 31.6 1171.01 32.4C1169.78 33.2 1168.79 34.2933 1168.05 35.68C1167.35 37.0667 1167.01 38.64 1167.01 40.4C1167.01 42.16 1167.35 43.7333 1168.05 45.12C1168.79 46.5067 1169.78 47.6 1171.01 48.4C1172.29 49.2 1173.7 49.6 1175.25 49.6Z" fill="url(#paint0_linear_370_1238)"/>
<defs>
<linearGradient id="paint0_linear_370_1238" x1="19.1328" y1="50.1428" x2="1223.86" y2="127.111" gradientUnits="userSpaceOnUse">
<stop stop-color="#3B28CC"/>
<stop offset="1" stop-color="#E83151" stop-opacity="0.76"/>
</linearGradient>
</defs>
</svg>
