<svg width="60" height="60" viewBox="0 0 60 60" fill="none" xmlns="http://www.w3.org/2000/svg">
<mask id="mask0_305_869" style="mask-type:alpha" maskUnits="userSpaceOnUse" x="0" y="0" width="60" height="60">
<rect width="60" height="60" fill="#D9D9D9"/>
</mask>
<g mask="url(#mask0_305_869)">
<path d="M28.25 47.375H32V34.8125L37.125 39.9375L39.75 37.3125L30 27.8125L20.375 37.4375L23 40.0625L28.25 34.8125V47.375ZM13.75 55C12.75 55 11.875 54.625 11.125 53.875C10.375 53.125 10 52.25 10 51.25V8.75C10 7.75 10.375 6.875 11.125 6.125C11.875 5.375 12.75 5 13.75 5H36.3125L50 18.6875V51.25C50 52.25 49.625 53.125 48.875 53.875C48.125 54.625 47.25 55 46.25 55H13.75ZM34.4375 20.375V8.75H13.75V51.25H46.25V20.375H34.4375Z" fill="#DDDDDD"/>
</g>
</svg>
