<svg width="44" height="44" viewBox="0 0 44 44" fill="none" xmlns="http://www.w3.org/2000/svg">
<path d="M20.5 5.5V0H23.5V5.5H20.5ZM20.5 44V38.5H23.5V44H20.5ZM38.5 23.5V20.5H44V23.5H38.5ZM0 23.5V20.5H5.5V23.5H0ZM35.1 11L32.95 8.85L36.25 5.55L38.4 7.7L35.1 11ZM7.75 38.45L5.6 36.3L8.9 33L11.05 35.15L7.75 38.45ZM36.25 38.45L32.95 35.15L35.1 33L38.4 36.3L36.25 38.45ZM8.9 11L5.6 7.7L7.75 5.55L11.05 8.85L8.9 11ZM22 33.25C18.8667 33.25 16.2083 32.1583 14.025 29.975C11.8417 27.7917 10.75 25.1333 10.75 22C10.75 18.8667 11.8417 16.2083 14.025 14.025C16.2083 11.8417 18.8667 10.75 22 10.75C25.1333 10.75 27.7917 11.8417 29.975 14.025C32.1583 16.2083 33.25 18.8667 33.25 22C33.25 25.1333 32.1583 27.7917 29.975 29.975C27.7917 32.1583 25.1333 33.25 22 33.25Z" fill="white"/>
</svg>
